<svg xmlns="http://www.w3.org/2000/svg" style="display: none;">
  <symbol id="html" viewbox="0 0 452 520">
    <path fill="#e34f26" d="M41 460L0 0h451l-41 460-185 52"/><path fill="#ef652a" d="M226 472l149-41 35-394H226"/><path fill="#ecedee" d="M226 208h-75l-5-58h80V94H84l15 171h127zm0 147l-64-17-4-45h-56l7 89 117 32z"/><path fill="#fff" d="M226 265h69l-7 73-62 17v59l115-32 16-174H226zm0-171v56h136l5-56z"/>
  </symbol>
  <symbol id="CSS" viewBox="0 0 512 512">
    <path fill="#264de4" d="M71.357 460.819 30.272 0h451.456l-41.129 460.746L255.724 512z"/><path fill="#2965f1" d="m405.388 431.408 35.148-393.73H256v435.146z"/><path fill="#ebebeb" d="m124.46 208.59 5.065 56.517H256V208.59zm-5.041-57.875H256V94.197H114.281zM256 355.372l-.248.066-62.944-16.996-4.023-45.076h-56.736l7.919 88.741 115.772 32.14.26-.073z"/><path fill="#fff" d="M255.805 208.59v56.517H325.4l-6.56 73.299-63.035 17.013v58.8l115.864-32.112.85-9.549 13.28-148.792 1.38-15.176 10.203-114.393H255.805v56.518h79.639L330.3 208.59z"/></svg>
  </symbol>
  <symbol id="" viewbox="">
    
  </symbol>
  <symbol id="" viewbox="">
    
  </symbol>
  <symbol id="" viewbox="">
    
  </symbol>
  <symbol id="" viewbox="">
    
  </symbol>
  <symbol id="" viewbox="">
    
  </symbol>
  <symbol id="" viewbox="">
    
  </symbol>
  <symbol id="" viewbox="">
    
  </symbol>
  <symbol id="" viewbox="">
    
  </symbol>
  <symbol id="git" viewBox="0 0 256 256">  
    <path d="M251.17 116.6 139.4 4.82a16.49 16.49 0 0 0-23.31 0l-23.21 23.2 29.44 29.45a19.57 19.57 0 0 1 24.8 24.96l28.37 28.38a19.61 19.61 0 1 1-11.75 11.06L137.28 95.4v69.64a19.62 19.62 0 1 1-16.13-.57V94.2a19.61 19.61 0 0 1-10.65-25.73L81.46 39.44 4.83 116.08a16.49 16.49 0 0 0 0 23.32L116.6 251.17a16.49 16.49 0 0 0 23.32 0l111.25-111.25a16.5 16.5 0 0 0 0-23.33" fill="#DE4C36"/>
  </symbol>
</svg>